<?xml version="1.0" encoding="UTF-8"?>
<svg width="100px" height="100px" viewBox="0 0 100 100" version="1.1" xmlns="http://www.w3.org/2000/svg" xmlns:xlink="http://www.w3.org/1999/xlink">
    <!-- Generator: Sketch 50.2 (55047) - http://www.bohemiancoding.com/sketch -->
    <title>1. Envelope opened</title>
    <desc>Created with Sketch.</desc>
    <defs></defs>
    <g id="1.-Envelope-opened" stroke="none" stroke-width="1" fill="none" fill-rule="evenodd" stroke-linejoin="round">
        <polygon id="Layer-1" stroke="#10AC84" stroke-width="4" fill="#10AC84" stroke-linecap="round" points="11.598125 29.84 2 29.84 2 98 98 98 98 29.84 88.398125 29.84 88.398125 38.0899457 55.9950423 64.3654676 50.033077 59.6 44.0711116 64.3654676 11.598125 38.0332609"></polygon>
        <polygon id="Layer-3" stroke="#2DBD98" stroke-width="4" fill="#2DBD98" stroke-linecap="round" points="50 59.6 2 98 98 98"></polygon>
        <polygon id="Layer-2" stroke="#0A7C5E" stroke-width="4" fill="#0A7C5E" stroke-linecap="round" points="97.1428571 29.8330078 97.1428571 30.9391304 55.9568345 64.3654676 50 59.6 44.0431655 64.3654676 2.85714286 30.9391304 2.85714286 29.8330078"></polygon>
        <polygon id="Layer-4" stroke="#C8D6E5" stroke-width="4" fill="#C8D6E5" stroke-linecap="round" points="88.398125 38.0899457 88.398125 2 11.598125 2 11.598125 38.0332609 44.0711116 64.3654676 50.033077 59.6 55.9950423 64.3654676 88.398125 38.0899457"></polygon>
        <path d="M24,28 L76.0047841,28" id="Layer-5" stroke="#92A3B4" stroke-width="4"></path>
        <path d="M24,40 L76.0047841,40" id="Layer-6" stroke="#92A3B4" stroke-width="4"></path>
        <path d="M24,16 L76.0047841,16" id="Layer-8" stroke="#92A3B4" stroke-width="4"></path>
    </g>
</svg>