<?xml version="1.0" encoding="UTF-8"?>
<svg width="100px" height="100px" viewBox="0 0 100 100" version="1.1" xmlns="http://www.w3.org/2000/svg" xmlns:xlink="http://www.w3.org/1999/xlink">
    <!-- Generator: Sketch 50.2 (55047) - http://www.bohemiancoding.com/sketch -->
    <title>17. Cash outcome</title>
    <desc>Created with Sketch.</desc>
    <defs></defs>
    <g id="17.-Cash-outcome" stroke="none" stroke-width="1" fill="none" fill-rule="evenodd" stroke-linecap="round" stroke-linejoin="round">
        <polygon id="Layer-1" stroke="#C8D6E5" stroke-width="4" fill="#C8D6E5" transform="translate(50.368116, 17.000000) scale(1, -1) translate(-50.368116, -17.000000) " points="37 18.6318841 44.8009285 18.6318841 44.8009285 2 55.9579353 2 55.9579353 18.6318841 63.7362318 18.6318841 50.3681159 32"></polygon>
        <rect id="Layer-2" stroke="#55AB94" stroke-width="4" fill="#55AB94" x="2" y="42" width="96" height="57.6"></rect>
        <ellipse id="Layer-3" stroke="#3A816D" stroke-width="4" fill="#3A816D" cx="49.4352941" cy="71.237023" rx="15.4352941" ry="21.237023"></ellipse>
        <path d="M19.25,92.474046 L80.75,92.474046 C80.75,86.609604 85.3390813,81.8555345 91,81.8555345 L91,60.6185115 C85.3390813,60.6185115 80.75,55.864442 80.75,50 L19.25,50 C19.25,55.864442 14.6609187,60.6185115 9,60.6185115 L9,81.8555345 C14.6609187,81.8555345 19.25,86.609604 19.25,92.474046 L19.25,92.474046 Z" id="Layer-4" stroke="#3A816D" stroke-width="4"></path>
        <ellipse id="Layer-5" stroke="#3A816D" stroke-width="4" fill="#3A816D" cx="23.8941176" cy="71.0338604" rx="2.89411765" ry="3.03386043"></ellipse>
        <ellipse id="Layer-6" stroke="#3A816D" stroke-width="4" fill="#3A816D" cx="74.8941176" cy="71.0338604" rx="2.89411765" ry="3.03386043"></ellipse>
    </g>
</svg>