<?xml version="1.0" encoding="UTF-8"?>
<svg width="100px" height="100px" viewBox="0 0 100 100" version="1.1" xmlns="http://www.w3.org/2000/svg" xmlns:xlink="http://www.w3.org/1999/xlink">
    <!-- Generator: Sketch 50.2 (55047) - http://www.bohemiancoding.com/sketch -->
    <title>36. Office chair</title>
    <desc>Created with Sketch.</desc>
    <defs></defs>
    <g id="36.-Office-chair" stroke="none" stroke-width="1" fill="none" fill-rule="evenodd" stroke-linecap="round" stroke-linejoin="round">
        <path d="M6,50.5392408 C6,46.9277178 8.93785553,44 12.5454545,44 L12.5454545,44 C16.1604093,44 19.0909091,46.927177 19.0909091,50.5392408 L19.0909091,70.1818182 L12.5454545,70.1818182 C8.93049982,70.1818182 6,67.2546412 6,63.6425774 L6,50.5392408 Z" id="Layer-2" stroke="#576574" stroke-width="4" fill="#576574"></path>
        <path d="M80,50.5392408 C80,46.9277178 82.9378555,44 86.5454545,44 L86.5454545,44 C90.1604093,44 93.0909091,46.927177 93.0909091,50.5392408 L93.0909091,63.6425774 C93.0909091,67.2541004 90.1530536,70.1818182 86.5454545,70.1818182 L80,70.1818182 L80,50.5392408 Z" id="Layer-3" stroke="#576574" stroke-width="4" fill="#576574"></path>
        <path d="M49.8727273,70 L49.8727273,86.9821102" id="Layer-4" stroke="#576574" stroke-width="4"></path>
        <path d="M26,88.2955626 C27.5838543,87.4956319 29.7819993,87 32.2100608,87 L67.1036676,87 C69.4491391,87 71.5786991,87.4616784 73.1478768,88.213135" id="Layer-5" stroke="#576574" stroke-width="4"></path>
        <circle id="Layer-6" stroke="#576574" stroke-width="4" fill="#576574" cx="23.4545455" cy="93" r="5"></circle>
        <circle id="Layer-7" stroke="#576574" stroke-width="4" fill="#576574" cx="75.8181818" cy="93" r="5"></circle>
        <circle id="Layer-8" stroke="#576574" stroke-width="4" fill="#576574" cx="50" cy="93" r="5"></circle>
        <path d="M19,22.008929 C19,10.9583026 27.9485679,2 39.0034485,2 L60.0874606,2 C71.1350601,2 80.0909091,10.9488691 80.0909091,22.008929 L80.0909091,61.3454545 L19,61.3454545 L19,22.008929 Z" id="Layer-9" stroke="#798592" stroke-width="4" fill="#798592"></path>
        <rect id="Layer-1" stroke="#485563" stroke-width="4" fill="#485563" x="19" y="61" width="61.0909091" height="8.72727273"></rect>
    </g>
</svg>