<?xml version="1.0" encoding="UTF-8"?>
<svg width="100px" height="100px" viewBox="0 0 100 100" version="1.1" xmlns="http://www.w3.org/2000/svg" xmlns:xlink="http://www.w3.org/1999/xlink">
    <!-- Generator: Sketch 50.2 (55047) - http://www.bohemiancoding.com/sketch -->
    <title>51. Package</title>
    <desc>Created with Sketch.</desc>
    <defs></defs>
    <g id="51.-Package" stroke="none" stroke-width="1" fill="none" fill-rule="evenodd">
        <g id="Group">
            <polygon id="Combined-Shape" fill="#957959" points="-7.10542736e-15 79.981695 -7.10542736e-15 20 50 0 100 20 100 79.981695 50 100"></polygon>
            <polygon id="Layer-3" fill="#7B6247" transform="translate(50.000000, 20.000000) scale(-1, 1) translate(-50.000000, -20.000000) " points="49.9670825 0 100 20 49.9670825 40 0 20"></polygon>
            <polygon id="Layer-1" fill="#957959" transform="translate(75.000000, 60.000000) scale(-1, 1) translate(-75.000000, -60.000000) " points="100 40.018305 100 100 50 79.981695 50 20"></polygon>
            <polygon id="Layer-2" fill="#6E5840" transform="translate(25.000000, 60.000000) scale(-1, 1) translate(-25.000000, -60.000000) " points="0 40.018305 0 100 50 79.981695 50 20"></polygon>
            <path d="M76,10.0950057 L26.2343963,30 L21,27.9063727 L70.7690497,8 L76,10.0950057 Z" id="Combined-Shape" fill="#957959"></path>
        </g>
    </g>
</svg>