<?xml version="1.0" encoding="UTF-8"?>
<svg width="100px" height="100px" viewBox="0 0 100 100" version="1.1" xmlns="http://www.w3.org/2000/svg" xmlns:xlink="http://www.w3.org/1999/xlink">
    <!-- Generator: Sketch 50.2 (55047) - http://www.bohemiancoding.com/sketch -->
    <title>59. Book</title>
    <desc>Created with Sketch.</desc>
    <defs></defs>
    <g id="59.-Book" stroke="none" stroke-width="1" fill="none" fill-rule="evenodd">
        <path d="M49.5757576,97.3834886 C49.5757576,91.5157844 44.8320493,86.7792734 38.9803885,86.7792734 L4.08806818,86.7792747 L4.08806818,8.94270835 L10.7878788,8.94270834 L10.7878788,79.5757576 L39.8806546,79.5757576 C45.2351121,79.5757576 49.5757576,83.9098172 49.5757576,89.278955 C49.5757576,83.9098172 53.916403,79.5757576 59.2708605,79.5757576 L88.3636364,79.5757576 L88.3636364,8.94270834 L95.063447,8.94270835 L95.063447,86.7792747 L60.1711267,86.7792734 C54.3194659,86.7792734 49.5757576,91.5157844 49.5757576,97.3834886 Z" id="Combined-Shape" stroke="#A4B8CE" stroke-width="4" fill="#A4B8CE" stroke-linecap="round" stroke-linejoin="round"></path>
        <path d="M49.5757576,89.278955 C49.5757576,83.9098172 45.2351121,79.5757576 39.8806546,79.5757576 L10.7878788,79.5757576 L10.7878788,2 L39.8879934,2 C45.2383978,2 49.5757576,6.34965654 49.5757576,11.6938381 C49.5757576,6.34965654 53.9131173,2 59.2635217,2 L88.3636364,2 L88.3636364,79.5757576 L59.2708605,79.5757576 C53.916403,79.5757576 49.5757576,83.9098172 49.5757576,89.278955 Z" id="Combined-Shape" fill="#C8D6E5"></path>
    </g>
</svg>