<?xml version="1.0" encoding="UTF-8"?>
<svg width="100px" height="100px" viewBox="0 0 100 100" version="1.1" xmlns="http://www.w3.org/2000/svg" xmlns:xlink="http://www.w3.org/1999/xlink">
    <!-- Generator: Sketch 50.2 (55047) - http://www.bohemiancoding.com/sketch -->
    <title>9. Weigher</title>
    <desc>Created with Sketch.</desc>
    <defs></defs>
    <g id="9.-Weigher" stroke="none" stroke-width="1" fill="none" fill-rule="evenodd" stroke-linecap="round" stroke-linejoin="round">
        <path d="M50,2.91626707 L50,101" id="Layer-1" stroke="#FEC957" stroke-width="6"></path>
        <path d="M78,8 L22,8" id="Layer-2" stroke="#FEC957" stroke-width="6"></path>
        <path d="M64,97 L36,97" id="Layer-3" stroke="#FEC957" stroke-width="6"></path>
        <path d="M3,55 L21.5302866,8.67428341 C22.0159232,8.88387298 22.5513472,9 23.1138942,9 C23.6016272,9 24.0689717,8.91270687 24.5011567,8.75289181 L43,55" id="Layer-4" stroke="#FEC957" stroke-width="6"></path>
        <path d="M57,55 L75.5302866,8.67428341 C76.0159232,8.88387298 76.5513472,9 77.1138942,9 C77.6016272,9 78.0689717,8.91270687 78.5011567,8.75289181 L97,55" id="Layer-5" stroke="#FEC957" stroke-width="6"></path>
        <path d="M43,55 C43,66.045695 34.045695,75 23,75 C11.954305,75 3,66.045695 3,55 L43,55 L43,55 Z" id="Layer-6" stroke="#FF9F43" stroke-width="6" fill="#FF9F43"></path>
        <path d="M97,55 C97,66.045695 88.045695,75 77,75 C65.954305,75 57,66.045695 57,55 L97,55 L97,55 Z" id="Layer-7" stroke="#FF9F43" stroke-width="6" fill="#FF9F43"></path>
    </g>
</svg>