<svg width="4232" height="4143" viewBox="0 0 4232 4143" fill="none" xmlns="http://www.w3.org/2000/svg">
<path d="M92.5 208C92.5 97.5429 182.043 8 292.5 8H1498.19C1746.06 8 1772.53 369.796 1527.3 405.871L746.04 520.796C658.507 533.673 589.836 602.531 577.198 690.098L490.449 1291.17C454.994 1536.83 92.5 1510.81 92.5 1262.6V208Z" fill="#223B5D"/>
<path d="M3932.5 3.5C4042.96 3.5 4132.5 93.0431 4132.5 203.5V1409.19C4132.5 1657.06 3770.7 1683.53 3734.63 1438.3L3619.7 657.04C3606.83 569.507 3537.97 500.836 3450.4 488.198L2849.33 401.449C2603.67 365.994 2629.69 3.5 2877.9 3.5L3932.5 3.5Z" fill="#223B5D"/>
<path d="M4140 3938.5C4140 4048.96 4050.46 4138.5 3940 4138.5H2734.31C2486.44 4138.5 2459.97 3776.7 2705.2 3740.63L3486.46 3625.7C3573.99 3612.83 3642.66 3543.97 3655.3 3456.4L3742.05 2855.33C3777.51 2609.67 4140 2635.69 4140 2883.9V3938.5Z" fill="#223B5D"/>
<path d="M294 4140C183.543 4140 94 4050.46 94 3940L94 2734.31C94 2486.44 455.796 2459.97 491.871 2705.2L606.796 3486.46C619.673 3573.99 688.531 3642.66 776.098 3655.3L1377.17 3742.05C1622.83 3777.51 1596.81 4140 1348.6 4140H294Z" fill="#223B5D"/>
<path fill-rule="evenodd" clip-rule="evenodd" d="M2619.83 871H1237L1237 3184.6H3087.88V1338.4L3083.2 1333.72L2625.16 876.325L2619.83 871Z" stroke="#223B5D" stroke-width="160" stroke-linecap="round" stroke-linejoin="round"/>
<path d="M3041.61 1379.99H2578.89V917.272" stroke="#223B5D" stroke-width="160" stroke-linecap="round" stroke-linejoin="round"/>
<path d="M1584.04 1865.85H2740.84" stroke="#223B5D" stroke-width="160" stroke-linecap="round" stroke-linejoin="round"/>
<path d="M1584.04 2421.11H2740.84" stroke="#223B5D" stroke-width="160" stroke-linecap="round" stroke-linejoin="round"/>
<path d="M1584.04 2143.48H2740.84" stroke="#223B5D" stroke-width="160" stroke-linecap="round" stroke-linejoin="round"/>
<path d="M1584.04 2698.74H2740.84" stroke="#223B5D" stroke-width="160" stroke-linecap="round" stroke-linejoin="round"/>
</svg>
